<svg version="1.1" xmlns="http://www.w3.org/2000/svg" xmlns:xlink="http://www.w3.org/1999/xlink" x="0px" y="0px" viewBox="0 0 1000 1000" enable-background="new 0 0 1000 1000" xml:space="preserve">
<metadata> Svg Vector Icons : http://www.onlinewebfonts.com/icon </metadata>
<g><g transform="translate(0.000000,511.000000) scale(0.100000,-0.100000)"><path fill="rgb(20, 204, 170)" d="M1743.8,4943.3c-119.2-60.7-205.8-125.6-333.6-255.6c-260-262.1-379.1-539.4-379.1-881.7c0-314.1,123.5-647.7,320.6-868.7l97.5-106.2l-56.3-145.1c-130-331.5-203.6-779.9-182-1120C1252,894.3,1759,62.4,2731.7-934.1c658.6-675.9,1594.5-1432,1988.7-1605.3l104-45.5l134.3,69.3c292.5,151.7,753.9,485.3,1200.2,870.9l264.3,227.5l303.3,97.5c472.3,156,693.3,197.1,1074.5,197.1c286,2.2,340.1-4.3,444.1-47.6c218.8-86.7,342.3-251.3,361.8-483.1c17.3-171.1-30.4-292.5-162.5-413.8c-151.7-140.8-249.1-190.6-818.9-418.1c-714.9-286-968.4-446.3-1124.4-712.7c-67.1-114.8-119.2-301.1-119.2-433.3c0-316.3-405.1-595.8-1055-727.9c-951-197.1-1960.6-28.2-2458.8,409.5c-101.8,91-255.6,283.8-255.6,318.4c2.2,10.8,52,60.7,114.8,112.7c275.1,225.3,340.1,296.8,340.1,377c0,43.3-17.3,97.5-36.8,121.3c-41.2,47.7-1592.3,697.6-1665.9,697.6c-23.8,0-65-15.2-91-34.7c-106.2-73.7-104-88.8,114.8-946.7c114.8-444.1,218.8-834,231.8-866.5c28.2-73.7,78-101.8,173.3-101.8c58.5,0,110.5,34.7,294.6,195c123.5,108.3,229.6,195,238.3,195c8.7,0,39-34.7,67.2-75.8c84.5-123.5,335.8-346.6,493.9-439.8c426.8-249.1,886-366.1,1512.1-387.8c457.1-15.2,732.2,10.8,1094,104c424.6,110.5,730.1,262.1,968.4,483.1c177.7,164.6,262.1,331.4,286,567.6c21.7,210.1,54.2,277.3,199.3,407.3c134.3,121.3,342.3,223.1,810.2,402.9c736.6,281.6,998.7,463.6,1152.5,795.1c49.8,106.1,60.6,153.8,58.5,309.8c0,452.8-225.3,760.4-645.6,894.7c-134.3,41.2-201.5,47.7-522.1,47.7c-340.1-2.2-636.9-34.7-786.4-91c-19.5-8.7,36.8,67.1,125.6,164.6C7870.3,107.9,8288.4,799,8398.9,1377.4c67.2,357.5-39,1087.5-203.6,1403.8c-30.3,58.5-28.1,62.8,62.8,175.5c277.3,340.1,374.8,825.4,247,1217.5c-97.5,307.6-333.6,591.4-621.8,751.7c-173.3,97.5-275.1,104-346.6,19.5c-58.5-67.2-60.7-106.2-15.2-266.5c23.8-82.3,32.5-173.3,26-294.6c-10.8-223.1-97.5-409.4-266.5-576.3l-117-117l-114.8,36.8c-335.8,104-933.7,138.7-1260.8,69.3c-312-65-563.3-169-823.2-344.5l-147.3-99.7l-145.1,95.3c-409.4,270.8-797.2,385.6-1302,383.5c-305.5,0-569.8-36.8-803.7-108.3l-138.6-43.3l-112.7,110.5c-260,255.6-346.6,608.7-231.8,933.7c52,147.3,8.7,242.6-134.3,283.8C1921.4,5016.9,1847.8,4993.1,1743.8,4943.3z M1689.6,4334.5c32.5-268.6,132.1-513.4,292.5-714.9l88.8-112.6l-71.5-47.7c-36.8-28.2-134.3-112.6-212.3-188.5L1642,3134.3l-80.2,110.5c-162.5,221-216.6,480.9-153.8,743.1c19.5,80.2,49.8,177.6,69.3,216.6c43.3,82.3,164.6,251.3,184.1,253.5C1670.1,4458,1683.1,4401.7,1689.6,4334.5z M8022,4354c125.6-164.6,166.8-309.8,166.8-578.4c0-262.1-23.8-342.3-160.3-528.6l-69.3-95.3l-132.1,130c-73.7,71.5-169,151.6-210.1,179.8s-78,52-82.3,56.3c-4.3,2.2,41.2,65,97.5,140.8c158.1,210.1,266.4,496.1,266.4,708.4C7898.5,4481.8,7924.5,4479.7,8022,4354z M3869,3429c205.8-49.8,550.3-227.5,725.7-370.5c199.3-166.8,231.8-166.8,452.8,8.7c190.6,151.6,496.1,307.6,706.2,359.6c312,78,844.9,65,1193.7-32.5c283.8-78,467.9-182,649.9-364c273-273,403-597.9,452.8-1120c36.8-405.1-17.3-671.6-218.8-1072.4C7428.4,29.9,6213-1239.6,5051.9-2071.5c-208-149.5-255.6-153.8-441.9-41.2c-169,104-578.4,424.6-870.9,680.2C2593-429.4,1793.6,593.2,1616,1282.1c-82.3,320.6-49.8,836.2,73.7,1200.2c80.2,234,175.5,387.8,346.6,556.8c234,231.8,532.9,361.8,977,420.3C3221.3,3487.5,3697.9,3470.1,3869,3429z M2092.6-2996.5c231.8-95.3,428.9-182,437.6-190.7c8.7-6.5-101.8-117-244.8-240.4c-335.8-292.5-387.8-331.5-400.8-318.5c-6.5,4.3-58.5,199.3-119.2,428.9c-58.5,231.8-112.6,437.6-119.2,459.3c-6.5,19.5-4.3,36.8,6.5,36.8C1661.5-2821,1860.8-2899.1,2092.6-2996.5z"/></g></g>
</svg>
