<svg version="1.1" xmlns="http://www.w3.org/2000/svg" xmlns:xlink="http://www.w3.org/1999/xlink" x="0px" y="0px" viewBox="0 0 1000 1000" enable-background="new 0 0 1000 1000" xml:space="preserve">
<metadata> Svg Vector Icons : http://www.onlinewebfonts.com/icon </metadata>
<g><path fill="rgb(20, 204, 170)" d="M463.6,630.1c-1.3,7.1-2.9,12.6-4.9,16.5s-6.5,8.1-13.6,12.6c-16.8,10.4-35,18.8-54.4,25.3c-19.4,6.5-38,13.6-55.8,21.4c-17.8,7.8-33.3,18-46.6,30.6c-13.3,12.6-21.5,30.6-24.8,53.9c-1.3,7.1-2.1,14.1-2.4,20.9c-0.3,6.8-0.8,13.1-1.5,18.9c-0.6,1.3-1.3,2.4-1.9,3.4c-0.6,1-1.3,2.1-1.9,3.4c-25.3-1.9-50.8-4.2-76.7-6.8c-25.9-2.6-49.7-5.5-71.4-8.7c-21.7-3.2-40-6.5-54.9-9.7c-14.9-3.2-24.3-6.5-28.2-9.7c-5.8-4.5-10.2-18.1-13.1-40.8c-2.9-22.7-1.8-52.1,3.4-88.4c3.2-20.1,11.5-35.4,24.8-46.1c13.3-10.7,29-19.1,47.1-25.3s36.7-11.8,55.8-17c19.1-5.2,36.1-12.3,51-21.4c11.7-7.8,20.6-14.9,26.7-21.4c6.2-6.5,10.5-13.1,13.1-19.9c2.6-6.8,3.9-13.8,3.9-20.9c0-7.1-0.3-14.9-1-23.3c-1.3-12.9-5.7-23.1-13.1-30.6c-7.4-7.4-15.7-15.1-24.8-22.8c-5.2-3.2-9.5-8.4-13.1-15.5c-3.6-7.1-6.6-14.2-9.2-21.4c-2.6-7.8-5.2-16.5-7.8-26.2c-3.9-1.3-7.8-3.2-11.7-5.8c-3.2-2.6-6.6-6.5-10.2-11.7c-3.6-5.2-7-12.3-10.2-21.4c-3.2-9.1-4.5-17.6-3.9-25.7s2.3-15.1,4.9-20.9c2.6-7.1,6.2-12.9,10.7-17.5c-0.6-20.7,0.3-41.8,2.9-63.1c2.6-17.5,6.8-36.3,12.6-56.3s14.6-38.2,26.2-54.4c10.4-15.5,22-28.2,35-37.9c12.9-9.7,26.1-17.3,39.3-22.8c13.3-5.5,26.7-9.2,40.3-11.2c13.6-1.9,26.9-2.9,39.8-2.9c32.4,0,61.5,6.8,87.4,20.4c25.9,13.6,45.3,28.2,58.3,43.7c8.4,11,13.8,21.2,16,30.6c2.3,9.4,5.3,20.2,9.2,32.5c-12.3,7.1-25.4,17.6-39.3,31.6c-13.9,13.9-26.1,28-36.4,42.2c-12.9,18.1-22.7,38.2-29.1,60.2c-6.5,22-11.3,42.4-14.6,61.2c-3.2,22.7-4.9,45.3-4.9,68c-5.2,5.8-9.1,12.3-11.7,19.4c-2.6,6.5-4.2,14.1-4.9,22.8c-0.6,8.7,0.6,18.3,3.9,28.6c3.2,11,6.8,19.4,10.7,25.3s7.4,10.4,10.7,13.6c3.9,3.9,7.8,6.5,11.7,7.8c2.6,10.4,5.2,20.1,7.8,29.1c2.6,7.8,5.7,15.7,9.2,23.8c3.6,8.1,7.9,14.1,13.1,18c4.5,3.9,8.1,7.1,10.7,9.7c2.6,2.6,4.7,5,6.3,7.3c1.6,2.3,2.6,5.3,2.9,9.2C461.5,618.5,462.3,623.7,463.6,630.1L463.6,630.1z M981.3,808.8c2.6,9.1,4.7,20.1,6.3,33c1.6,12.9,2.4,26.1,2.4,39.3c0,13.3-1,25.7-2.9,37.4c-1.9,11.7-4.9,20.4-8.7,26.2c-2.6,3.9-10.2,7.8-22.8,11.7c-12.6,3.9-28.3,7.4-47.1,10.7c-18.8,3.2-39.5,6.3-62.2,9.2c-22.7,2.9-45.5,5.3-68.5,7.3c-23,1.9-45.2,3.6-66.5,4.9c-21.4,1.3-40.1,1.9-56.3,1.9c-16.2,0-34.8-0.6-55.8-1.9c-21-1.3-42.9-2.9-65.6-4.9c-22.7-1.9-45-4-67-6.3c-22-2.3-42.2-4.9-60.7-7.8c-18.5-2.9-34-5.8-46.6-8.7c-12.6-2.9-20.6-5.7-23.8-8.3c-5.2-4.5-9.4-18.1-12.6-40.8c-3.2-22.7-2.3-51.8,2.9-87.4c3.2-20.7,11.5-36.3,24.8-46.6c13.3-10.4,29-18.8,47.1-25.2c18.1-6.5,36.7-12.1,55.8-17c19.1-4.9,36.1-12.1,51-21.8c11.7-7.8,20.6-14.9,26.7-21.4c6.1-6.5,10.7-12.9,13.6-19.4c2.9-6.5,4.4-13.3,4.4-20.4s-0.3-15.2-1-24.3c-1.3-12.9-5.8-23.1-13.6-30.6c-7.8-7.4-16.2-14.7-25.3-21.9c-4.5-3.9-8.6-9.4-12.1-16.5c-3.6-7.1-6.6-14.2-9.2-21.4c-2.6-7.8-5.2-16.5-7.8-26.2c-3.9-1.3-7.8-3.2-11.7-5.8c-3.2-2.6-6.6-6.5-10.2-11.7c-3.6-5.2-7-12.3-10.2-21.4c-3.2-9.1-4.5-17.6-3.9-25.7c0.6-8.1,2.3-14.7,4.9-19.9c2.6-6.5,6.2-12.3,10.7-17.5c-0.6-20.7,0.3-41.8,2.9-63.1c2.6-18.1,6.6-37.1,12.1-56.8c5.5-19.7,14.1-38,25.7-54.9c10.4-15.5,22-28.2,35-37.9s26.2-17.3,39.8-22.8c13.6-5.5,27.2-9.2,40.8-11.2c13.6-1.9,26.5-2.9,38.8-2.9c33,0,62.5,6.8,88.4,20.4c25.9,13.6,45,28.2,57.3,43.7c14.2,17.5,24.8,37.1,31.6,58.8c6.8,21.7,11.8,41.9,15.1,60.7c3.2,22,4.5,44,3.9,66c3.2,2.6,6.2,6.2,8.7,10.7c1.9,3.9,3.7,8.9,5.3,15.1s1.8,13.8,0.5,22.8c-1.3,11.7-3.9,21-7.8,28.2c-3.9,7.1-7.8,12.6-11.7,16.5c-4.5,4.5-9.7,7.4-15.5,8.7c-2.6,9.7-5.2,18.5-7.8,26.2c-2.6,7.1-5.8,14.2-9.7,21.4c-3.9,7.1-8.1,12.3-12.6,15.5c-5.2,4.5-9.9,8.4-14.1,11.7c-4.2,3.2-7.9,6.6-11.2,10.2c-3.2,3.6-6,7.6-8.3,12.1c-2.3,4.5-4,10-5.3,16.5c-1.3,8.4-1.8,17-1.5,25.7c0.3,8.7,2.4,17.3,6.3,25.7c3.9,8.4,10.2,16.5,18.9,24.3c8.7,7.8,20.9,14.6,36.4,20.4c13.6,5.8,28.6,10.8,45.2,15.1c16.5,4.2,32.4,9.2,47.6,15.1c15.2,5.8,28.8,13.3,40.8,22.3C967.5,782.9,976.1,794.6,981.3,808.8L981.3,808.8z"/></g>
</svg>
