<svg version="1.1" xmlns="http://www.w3.org/2000/svg" xmlns:xlink="http://www.w3.org/1999/xlink" x="0px" y="0px" viewBox="0 0 1000 1000" enable-background="new 0 0 1000 1000" xml:space="preserve">
  <metadata> Svg Vector Icons : http://www.onlinewebfonts.com/icon </metadata>
  <g><g><g><path fill="rgb(20, 204, 170)" d="M981.6,521.7C827.7,340.6,683.4,138,481.1,7.3c-15.4-9.9-32.2-1.8-42,11C296.6,203.5,114.9,359.6,13.4,573.6c-9.6,20.3,1.7,45.8,26.3,45.8c43,0,85.9-0.2,128.9-0.6c-4.6,121.7-6.7,242.6,11,363.5c3.4,23.1,41.6,17.4,40.4-5.5c-6.7-130-0.7-258.2,9.1-387.9c1.2-16.3-14.4-29.4-29.7-29.7c-36.6-0.5-73.3-0.5-109.9-0.6C188.8,377.9,343.5,235.6,471.8,75c171,117.4,299.9,289.6,431.8,448.6c-44.2,6.2-87.3,5-133.8,4.2c-16.7-0.3-30.7,14.2-30.7,30.7c0,78.5-1.4,157.1,0.3,235.6c0.7,29.8,2.9,59.6,4.1,89.3c0.6,14.3,0.7,28.6,0.3,42.9c-1.5,6.3-1.9,10.8-1.3,13.8c-5,9.5-5,22.7,2.3,31.2c1.4,1.6,2.8,3.3,4.2,4.9c7.1,8.3,22.7,10.4,31.6,4.1c36.5-25.9,24.8-82.5,23.3-120.9c-3.6-90-3.5-179.9-3.5-269.9c57,0.5,111.6-1.2,167.6-16.7C991.7,566.4,996.3,538.9,981.6,521.7z"/><path fill="rgb(20, 204, 170)" d="M674.3,413.5c-81.7-87.5-170.3,8.8-209.7,95.3c-49.1-58.9-125.7-98.8-177.1-13.9c-81.6,134.9,58.3,319.5,166.9,386.9c20.7,12.8,37.3-10.6,29.5-28.4c10.3,16,38.2,22.4,53,1.6C601.9,763.3,783,529.8,674.3,413.5z M643.3,484.4c-3-1.6-6-3.2-8.6-4.8c-17.4-10.9-33.8-23.1-49.9-35.6C617,429.8,636.9,453.2,643.3,484.4z M426.6,547.5c-18.4-15-36.6-30.1-55-45C393.7,504.4,412.4,525.3,426.6,547.5z M482.1,849.7c-1.4-2.1-3.1-4.2-5.4-5.9c-26.3-19.9-50.1-43.1-71-68.6c5,4.3,9.8,8.9,14.9,13.1c18,14.7,39.5,33.6,63.3,39.4C479.5,835.6,479.3,843.2,482.1,849.7z M500.9,803.3c-48.7-14.9-93.2-52.7-134.7-86.5c-15.1-27.6-26.7-57-33.8-87.8c27.8,34.8,57.2,67.9,89.4,98.9c24,23.1,52.2,50.5,82.5,70.7C503.2,800.1,502,801.7,500.9,803.3z M523.5,772c-27.6-21.1-58.5-39.6-84.5-61.4C401.1,679,366.6,643.4,334.5,606c-1.8-2.1-4.1-2.6-6.4-2.2c-0.3-2.4-0.9-4.8-1.2-7.2c-0.4-3.5-0.7-7.6-0.9-12.1c33,35.5,68.3,68.7,104.6,100.8c29.3,25.9,62.8,58.3,98.8,78.5C527.4,766.5,525.5,769.3,523.5,772z M547.1,738.8c-34.9-29.4-78.2-52.9-113.4-80.8c-37.8-30-73-62.8-107-97c0.7-7.2,1.9-14.5,3.7-21.3c29.5,38.6,65.7,71,103.1,102.9c30.7,26.2,75,73.4,117.4,90.5C549.6,735,548.3,737,547.1,738.8z M569.9,704.7c-10.7-8.8-23.2-15.5-35-23.4c-31.5-21-61.8-43.8-91.7-67c-35.6-27.7-76-56.3-107.9-88.2c3.5-7.4,8.2-13.5,14.3-17.7c64.7,65.1,142.7,142.2,226.5,186.6C574,698.2,572,701.5,569.9,704.7z M593.4,666.2c-33.6-22.6-68.6-43.4-101.4-67.4c-0.8-0.6-1.5-1.2-2.3-1.7c5.5-3.5,9.8-8.6,11-15.6c0.5-2.5,1.1-5.1,1.6-7.6c13,11.8,26.3,23.1,40.5,33.6c18,13.4,39.7,30.8,62.1,37.8C601.2,652.2,597.4,659.2,593.4,666.2z M618.2,618C602,605.8,582,597.4,565,586.8c-19.8-12.4-38.1-26.8-55.7-42.1c2.6-8.8,5.7-17.4,9.2-25.8c18.4,16.5,36.5,33.3,56,48.5c14.1,11,33.9,27.3,53.2,27C624.8,602.3,621.7,610.2,618.2,618z M636.2,568.7c-14.7-11.2-35.4-17.5-50.8-27.9c-19.5-13.2-37.8-28.2-56.3-42.8c2.8-4.7,5.7-9.3,8.9-13.7c17.8,14.9,35.7,29.8,53,45.2c13.4,12,28.4,29.8,45.5,38.2C636.4,568.1,636.3,568.4,636.2,568.7z M606.2,509.7c-18.4-13.4-36.3-27.6-54.4-41.6c3.2-3.2,6.5-6.3,10-9.3c14.8,13.9,31.8,25.9,47.8,37.6c10.6,7.7,22.4,19,35.1,27.3c-0.3,3.9-0.6,7.8-1.2,11.7C631.7,525.9,617.4,517.9,606.2,509.7z"/></g></g><g></g><g></g><g></g><g></g><g></g><g></g><g></g><g></g><g></g><g></g><g></g><g></g><g></g><g></g><g></g></g>
</svg>
