<svg version="1.1" xmlns="http://www.w3.org/2000/svg" xmlns:xlink="http://www.w3.org/1999/xlink" x="0px" y="0px" viewBox="0 0 1000 1000" enable-background="new 0 0 1000 1000" xml:space="preserve">
<metadata> Svg Vector Icons : http://www.onlinewebfonts.com/icon </metadata>
<g><path fill="rgb(20, 204, 170)" d="M538.6,482.2h-314v35.6h314V482.2z M538.6,599.9h-314v38h314V599.9z M343.6,10v118.4h-119v118.4H108.7V990H657V871h115.9V755.7h118.4V10L343.6,10L343.6,10z M619,951.9H146.8V282.3H619V951.9z M734.9,835.4H657V246.7H262.7v-80.3h472.2V835.4L734.9,835.4z M853.2,717.7h-80.3V128.3H381.6V48h471.6V717.7z M538.6,834.8h-314v38h314V834.8z M538.6,716.4h-314v38h314V716.4z M539.2,363.2h-314v39.2h314V363.2z"/></g>
</svg>
