<svg version="1.1" xmlns="http://www.w3.org/2000/svg" xmlns:xlink="http://www.w3.org/1999/xlink" x="0px" y="0px" viewBox="0 0 1000 1000" enable-background="new 0 0 1000 1000" xml:space="preserve">
<metadata> Svg Vector Icons : http://www.onlinewebfonts.com/icon </metadata>
<g><g><g><rect fill="rgb(20, 204, 170)" x="10" y="683.2" width="299.8" height="231.2"/><rect fill="rgb(20, 204, 170)" x="690.2" y="762.1" width="299.8" height="152.3"/><rect fill="rgb(20, 204, 170)" x="336.7" y="587.7" width="326.7" height="326.7"/><path fill="rgb(20, 204, 170)" d="M759.5,219.2c5.5-46.7-28.1-85.5-69.9-98.9c-4.6-1.5-7.9-6.2-7.4-10.9c0.5-5.3,0.9-10.3,1.1-15.2c0.2-4.8-3.7-8.7-8.5-8.7H325.2c-4.8,0-8.7,3.9-8.5,8.7c0.2,4.8,0.6,9.9,1.1,15.2c0.5,4.8-2.8,9.5-7.4,10.9c-41.8,13.4-75.4,52.2-69.9,98.9c3.1,26.4,13.6,52.4,35.5,69c12.3,9.4,25.3,16.4,39.3,23c6.4,2.8,12.8,5.5,19.3,8.2c13.3,5.6,19.9,11,29.1,18.8c3.6,3.1,3.6,2.7-1.1,1.8c-15.1-2.9-27.9,20.4-12.9,33c15.2,12.8,32.8,10.5,47.5-2c4.4-3.8,7.2-8.2,8.7-13c1.4-4.6,3.7-5.4,6.6-1.6c15.8,20.3,33,36.4,51.1,45.9c4.2,2.2,7.9,7.6,7.9,12.4v54.4c0,1.7,0.2,3.3,0.5,4.9c0.5,2.7-2.6,4.7-7.4,4.7h-36c-11.8,0-21.4,9.6-21.4,21.4v34.4c0,11.8,9.6,21.4,21.4,21.4h143c11.8,0,21.4-9.6,21.4-21.4v-34.4c0-11.8-9.6-21.4-21.4-21.4h-36c-4.8,0-7.9-2.1-7.4-4.7c0.3-1.6,0.5-3.2,0.5-4.9v-54.4c0-4.8,3.6-10.1,7.8-12.3c18.2-9.5,35.4-25.6,51.1-45.9c2.9-3.8,5.2-3,6.6,1.6c1.5,4.8,4.3,9.2,8.7,13c14.7,12.4,32.2,14.7,47.5,2c15-12.6,2.2-35.9-12.9-33c-4.7,0.9-4.7,1.3-1.1-1.8c9.2-7.8,15.8-13.3,29.1-18.8c6.5-2.7,12.9-5.4,19.3-8.2c14-6.5,27-13.6,39.3-23C745.9,271.6,756.4,245.6,759.5,219.2z M368.5,293.9c-20.5-10.9-45.5-17.3-63.8-28.7c-47.5-29.7-31-90.1,12-108.8c4.4-1.9,8.9,0.9,10,5.5c9.5,41.4,25.2,87.4,45.4,128.5C374.2,294.8,372.7,296.2,368.5,293.9z M532.7,341h-33.9V172.3H498l-45.1,24.3l-6.8-26.7l56.6-30.3h29.9V341z M695.4,265.2c-18.3,11.4-43.3,17.8-63.8,28.7c-4.2,2.2-5.7,0.9-3.6-3.4c20.2-41.1,35.9-87.1,45.4-128.5c1.1-4.7,5.6-7.4,10-5.5C726.4,175.1,742.8,235.5,695.4,265.2z"/></g></g><g></g><g></g><g></g><g></g><g></g><g></g><g></g><g></g><g></g><g></g><g></g><g></g><g></g><g></g><g></g></g>
</svg>
